<?xml version="1.0" encoding="utf-8"?>
<!-- Generator: Adobe Illustrator 28.2.0, SVG Export Plug-In . SVG Version: 6.00 Build 0)  -->
<svg version="1.1" id="Layer_1" xmlns="http://www.w3.org/2000/svg" xmlns:xlink="http://www.w3.org/1999/xlink" x="0px" y="0px"
	 viewBox="0 0 900 697.9" style="enable-background:new 0 0 900 697.9;" xml:space="preserve">
<style type="text/css">
	.st0{fill:#F9ED32;}
	.st1{fill:none;stroke:#EAE7CE;stroke-width:6;stroke-miterlimit:10;}
</style>
<rect class="st0" width="900" height="697.9"/>
<path class="st1" d="M48.5,219.2C31.1,282.2,16.1,345.9,3.6,410c-1.2,6.3-2.1,13.7,2.5,18.1c6.3,6.2,16.9,1.4,23.9-4.2
	c61-48.8,82.4-132.9,137-188.8c5.8-6,14.2-12,21.8-8.7c9.2,4,8.5,17.1,6.1,26.8C163.3,378.2,84.8,488.8,64.4,616
	c19.2-9.6,29.9-30.1,38.8-49.5c79.5-173.7,112-367.8,207.3-533.3C245.7,245.7,111.2,430.9,37.6,640.6
	c128.3-96.6,188-259.6,300.6-374.1c-70.2,161-150.9,317.4-241.3,468c-4.3-39.9,13.3-78.8,33.4-113.7
	C189,518.7,273,431.3,372.7,368.4c36.5-23,75.8-43,118.2-51.3c8.4,41.4-18.1,81.5-46.3,113c-87.7,98.1-206.1,168.4-334.3,198.3
	c-40.8,9.5-88,13.7-120.4-12.8c-31.1-25.4-37.7-70.5-33.9-110.5c9.9-104.3,76.8-200,168.5-250.7s205.1-57.3,304.3-23.7
	c16.9,5.7,34.1,13,45.8,26.5c11.7,13.5,16.1,34.8,5.7,49.3c-6.2,8.7-16.3,13.5-26.1,17.8c-68.3,29.9-141.1,49.6-215.1,58.3
	c-0.1-19.6,13.6-36.3,27.5-50c69.7-68.6,163.5-108.5,259.1-129.2c51.1-11,105.7-16.7,154.8,1.3c49.1,18,90.6,65.4,86.8,117.6
	c-3.6,49.9-45.2,88.3-87.1,115.6C598.3,491.4,503,523.6,405.7,531c-38.2,2.9-85.9-4.1-98.6-40.2c-7.6-21.7,1.2-45.7,12.9-65.4
	c50.7-85.7,152.5-130.3,251.7-138.9c61.6-5.4,127,2,177.9,37c9.4,6.4,19.1,16.8,15.4,27.6c-1.7,5-6.1,8.6-10.5,11.7
	c-20.5,14.3-45.1,22.5-70.1,23.4c-7.9-11.6,3.2-26.4,13.8-35.7c51.1-44.8,107.8-83.2,168.5-113.9c32.7-16.5,68.8-33,85.9-65.4
	c-41.6-11.9-82.8,18.3-113.6,48.7c-81.1,80-148.3,179.3-167.6,291.7c-3,17.3-3.8,37.6,9,49.5c8.7,8.1,21.3,9.9,33.1,11.3
	c25.9,2.9,55,4.4,75-12.4c17.7-14.8,22.9-39.6,25.8-62.5c12-93.2,5.3-188.8-19.4-279.4c-45,84.7-56.4,186.6-31.2,279.2
	c8.3,30.7,22.2,62.4,49.2,79.2c9.2,5.7,21.6,9.2,30.5,3c6.4-4.5,9-12.7,10.5-20.4c8.7-43.1-1.1-87.7-14.6-129.5
	c-18.1-56.2-43.2-110.1-74.4-160.2c-17.8-28.6-39.6-57.5-71.3-68.9c-40.4-14.5-84.8,3.4-122.1,24.5
	c-50.6,28.6-97.5,63.9-139.1,104.5c-19.9,19.5-39,40.8-49.6,66.5c-2.4,5.8-4,13.1,0.2,17.7c3,3.3,7.9,3.8,12.3,4.2
	c112.3,8.3,225.8-2.4,337.2,13.7c11.4,1.6,25.8,7.1,25.1,18.6c-0.3,6-5.1,10.8-9.9,14.5c-20.9,16.1-47.2,23.2-72.9,29.1
	c-103.2,23.7-209.5,33.9-315.3,30.2c-32.6-1.1-70.9-7.2-85.4-36.4c-10.2-20.5-4.3-45.1,3.6-66.6c51-137.9,186.7-240.4,333.3-251.7
	c26.7-2.1,56.7,0,74.9,19.6c22.4,24.2,16,63.1,3.1,93.4c-17.4,40.8-43.6,77.2-71.8,111.4c-34.7,42-72.7,81.3-113.6,117.3
	c-32.4,28.5-67.2,55.3-107.4,70.7c-12.3,4.7-26,8.4-38.7,4.8c-28.3-8-35.5-44.7-33.8-74.1c4.5-75.2,33.8-148.6,82.4-206.1
	c40.4-47.8,99.8-86.1,162-79.1c-216.9,68.6-427.3,157.8-627.5,266c-33,17.8-68.8,36.8-105.9,30.9c23-41,65.6-66.7,107-88.9
	c84.7-45.4,173-84.1,263.7-116c25.5-8.9,53-18.7,68.1-41.1c16-23.8,13.4-55.3,8.1-83.6C280,184.3,277,173,268,167.8
	c-12.9-7.5-28.7,2.3-39.9,12.1c-60.2,52-109.9,114.8-159.3,177.2c-49.5,62.6-100,127.1-123.7,203.3
	c161.8-57.2,326.3-106.6,492.8-148c61-15.1,122.3-29.2,184.7-36.5c6.9-0.8,14.5-1.8,19.2-7c5.5-6,5-15.3,4-23.4
	c-6.2-51.8-16.6-103-31-153.1c10-8.6,24.3,3.9,30.8,15.5c48,85.1,60,189.7,32.5,283.5c-27.5,93.7-94.2,175.3-180.6,220.8
	c-30.6,16.2-66.8,28-99.5,16.9c-26.7-9-46.9-32.6-56.3-59.2c-9.4-26.6-8.9-55.8-3.6-83.4c15.9-82.6,77.3-155,156.2-184.2
	c78.9-29.2,172.6-14.3,238.5,38c0.6-68.4,44.1-128.4,89.1-179.9c37.2-42.4,76.8-82.8,119.9-119.2c-7.9,90.4-89.4,162.5-94.3,253.1
	c-1.3,24.9,3.3,49.9,1.3,74.7c-2,24.9-12.5,51.3-34.9,62.4c46.2-50.3,91.1-101.9,134.4-154.7c6.9-8.4,14.2-18.1,12.8-28.9
	c-0.9-7-5.2-13-10-18.2c-14.4-15.7-33.5-26.9-54.2-31.9"/>
</svg>
